<?xml version="1.0" encoding="utf-8"?>
<!-- Uploaded to: SVG Repo, www.svgrepo.com, Generator: SVG Repo Mixer Tools -->
<svg fill="#000000" version="1.1" id="Layer_1" xmlns="http://www.w3.org/2000/svg" xmlns:xlink="http://www.w3.org/1999/xlink" 
	 width="800px" height="800px" viewBox="0 0 256 160" enable-background="new 0 0 256 160" xml:space="preserve">
<path d="M64.538,111.459c-12.775,0-23.113,10.338-23.113,23.113c0,12.775,10.338,23.113,23.113,23.113
	c12.775,0,23.113-10.338,23.113-23.113C87.651,121.797,77.314,111.459,64.538,111.459z M64.538,143.426
	c-4.853,0-8.853-4-8.853-8.853c0-4.853,4-8.853,8.853-8.853s8.853,4,8.853,8.853C73.391,139.425,69.391,143.426,64.538,143.426z
	 M2,121.44c0,4.481,3.519,8.56,8,8.56h22c0.924,0,1.832-1.16,2-2c2.521-14.456,15.326-24.441,30.538-24.441
	s27.82,10.026,30.341,24.482C95.048,128.966,96.075,130,97,130h33V2H2V121.44z M72.613,51.769h15.239
	c9.518,0,8.876,6.256,8.876,6.256H63.737C63.737,58.025,63.042,51.769,72.613,51.769z M65.18,60.966h30.265
	c1.551,0,2.834,1.23,2.834,2.834c0,1.551-1.283,2.834-2.834,2.834H65.18c-1.551,0-2.834-1.23-2.834-2.834
	C62.346,62.25,63.576,60.966,65.18,60.966z M87.799,75.938H72.613c-9.571,0-8.876-6.256-8.876-6.256h32.939
	C96.675,69.682,97.317,75.938,87.799,75.938z M34.113,17.387l4.492,15.56h22.511l-5.454,42.991H37.268L31.76,32.947l4.171-0.053
	l-4.278-14.812L34.113,17.387z M30.477,79.2h68.444v5.187H30.477V79.2z M252,113h-5V91c0-7.396-5.52-13-13-13h-24
	c-0.504,0-1.099-0.268-1.436-0.604l-37.401-36.405C169.482,39.31,167.437,38.084,165,38h-27v92h40c0.925,0,1.832-1.16,2-2
	c2.521-14.456,14.83-25.425,30.043-25.425s27.82,11.01,30.341,25.466c0.168,0.925,1.691,1.959,2.616,1.959h2
	c4.791,0,9-4.312,9-9.019v-6.219C254,113.837,253.009,113,252,113z M191,78h-41c-1.009,0-2-0.992-2-2V50c0-1.009,0.991-2,2-2h13
	c0.504,0,1.523,0.555,1.944,0.891L192,75C193.009,76.261,192.597,78,191,78z M210.043,110.475
	c-12.775,0-23.113,10.338-23.113,23.113c0,12.775,10.338,23.113,23.113,23.113s23.113-10.338,23.113-23.113
	C233.156,120.813,222.818,110.475,210.043,110.475z M210.043,142.441c-4.853,0-8.853-4-8.853-8.853c0-4.853,4-8.853,8.853-8.853
	s8.853,4,8.853,8.853C218.896,138.441,214.896,142.441,210.043,142.441z"/>
</svg>